<?xml version="1.0" encoding="UTF-8" standalone="no"?>
<!DOCTYPE svg PUBLIC "-//W3C//DTD SVG 1.1//EN"
 "http://www.w3.org/Graphics/SVG/1.1/DTD/svg11.dtd">
<!-- Generated by graphviz version 2.40.1 (20161225.0304)
 -->
<!-- Title: %3 Pages: 1 -->
<svg width="332pt" height="206pt"
 viewBox="0.00 0.00 332.00 206.00" xmlns="http://www.w3.org/2000/svg" xmlns:xlink="http://www.w3.org/1999/xlink">
<g id="graph0" class="graph" transform="scale(1 1) rotate(0) translate(4 202)">
<title>%3</title>
<polygon fill="#ffffff" stroke="transparent" points="-4,4 -4,-202 328,-202 328,4 -4,4"/>
<!-- x_1 -->
<g id="node1" class="node">
<title>x_1</title>
<ellipse fill="#ffa500" stroke="#ffa500" cx="27" cy="-153" rx="27" ry="18"/>
<text text-anchor="middle" x="27" y="-149.3" font-family="Times,serif" font-size="14.00" fill="#000000">x_1</text>
</g>
<!-- x_2 -->
<g id="node2" class="node">
<title>x_2</title>
<ellipse fill="#ffa500" stroke="#ffa500" cx="27" cy="-99" rx="27" ry="18"/>
<text text-anchor="middle" x="27" y="-95.3" font-family="Times,serif" font-size="14.00" fill="#000000">x_2</text>
</g>
<!-- x_1&#45;&gt;x_2 -->
<!-- f1_1 -->
<g id="node4" class="node">
<title>f1_1</title>
<ellipse fill="#c0c0c0" stroke="#c0c0c0" cx="117" cy="-180" rx="27" ry="18"/>
<text text-anchor="middle" x="117" y="-176.3" font-family="Times,serif" font-size="14.00" fill="#000000">f1_1</text>
</g>
<!-- x_1&#45;&gt;f1_1 -->
<g id="edge1" class="edge">
<title>x_1&#45;&gt;f1_1</title>
<path fill="none" stroke="#000000" d="M52.07,-160.521C61.5102,-163.3531 72.4169,-166.6251 82.564,-169.6692"/>
<polygon fill="#000000" stroke="#000000" points="81.7915,-173.0915 92.3755,-172.6126 83.803,-166.3867 81.7915,-173.0915"/>
</g>
<!-- f1_2 -->
<g id="node5" class="node">
<title>f1_2</title>
<ellipse fill="#c0c0c0" stroke="#c0c0c0" cx="117" cy="-126" rx="27" ry="18"/>
<text text-anchor="middle" x="117" y="-122.3" font-family="Times,serif" font-size="14.00" fill="#000000">f1_2</text>
</g>
<!-- x_1&#45;&gt;f1_2 -->
<g id="edge2" class="edge">
<title>x_1&#45;&gt;f1_2</title>
<path fill="none" stroke="#000000" d="M52.07,-145.479C61.5102,-142.6469 72.4169,-139.3749 82.564,-136.3308"/>
<polygon fill="#000000" stroke="#000000" points="83.803,-139.6133 92.3755,-133.3874 81.7915,-132.9085 83.803,-139.6133"/>
</g>
<!-- f1_3 -->
<g id="node6" class="node">
<title>f1_3</title>
<ellipse fill="#c0c0c0" stroke="#c0c0c0" cx="117" cy="-72" rx="27" ry="18"/>
<text text-anchor="middle" x="117" y="-68.3" font-family="Times,serif" font-size="14.00" fill="#000000">f1_3</text>
</g>
<!-- x_1&#45;&gt;f1_3 -->
<g id="edge3" class="edge">
<title>x_1&#45;&gt;f1_3</title>
<path fill="none" stroke="#000000" d="M43.0902,-138.5188C56.9542,-126.0413 77.1669,-107.8498 92.9519,-93.6433"/>
<polygon fill="#000000" stroke="#000000" points="95.6541,-95.9201 100.7457,-86.6289 90.9713,-90.717 95.6541,-95.9201"/>
</g>
<!-- f1_4 -->
<g id="node7" class="node">
<title>f1_4</title>
<ellipse fill="#c0c0c0" stroke="#c0c0c0" cx="117" cy="-18" rx="27" ry="18"/>
<text text-anchor="middle" x="117" y="-14.3" font-family="Times,serif" font-size="14.00" fill="#000000">f1_4</text>
</g>
<!-- x_1&#45;&gt;f1_4 -->
<g id="edge4" class="edge">
<title>x_1&#45;&gt;f1_4</title>
<path fill="none" stroke="#000000" d="M38.0358,-136.4464C53.5549,-113.1677 81.9587,-70.5619 100.1352,-43.2972"/>
<polygon fill="#000000" stroke="#000000" points="103.2391,-44.951 105.874,-34.6891 97.4147,-41.0681 103.2391,-44.951"/>
</g>
<!-- x_3 -->
<g id="node3" class="node">
<title>x_3</title>
<ellipse fill="#ffa500" stroke="#ffa500" cx="27" cy="-45" rx="27" ry="18"/>
<text text-anchor="middle" x="27" y="-41.3" font-family="Times,serif" font-size="14.00" fill="#000000">x_3</text>
</g>
<!-- x_2&#45;&gt;x_3 -->
<!-- x_2&#45;&gt;f1_1 -->
<g id="edge5" class="edge">
<title>x_2&#45;&gt;f1_1</title>
<path fill="none" stroke="#000000" d="M43.0902,-113.4812C56.9542,-125.9587 77.1669,-144.1502 92.9519,-158.3567"/>
<polygon fill="#000000" stroke="#000000" points="90.9713,-161.283 100.7457,-165.3711 95.6541,-156.0799 90.9713,-161.283"/>
</g>
<!-- x_2&#45;&gt;f1_2 -->
<g id="edge6" class="edge">
<title>x_2&#45;&gt;f1_2</title>
<path fill="none" stroke="#000000" d="M52.07,-106.521C61.5102,-109.3531 72.4169,-112.6251 82.564,-115.6692"/>
<polygon fill="#000000" stroke="#000000" points="81.7915,-119.0915 92.3755,-118.6126 83.803,-112.3867 81.7915,-119.0915"/>
</g>
<!-- x_2&#45;&gt;f1_3 -->
<g id="edge7" class="edge">
<title>x_2&#45;&gt;f1_3</title>
<path fill="none" stroke="#000000" d="M52.07,-91.479C61.5102,-88.6469 72.4169,-85.3749 82.564,-82.3308"/>
<polygon fill="#000000" stroke="#000000" points="83.803,-85.6133 92.3755,-79.3874 81.7915,-78.9085 83.803,-85.6133"/>
</g>
<!-- x_2&#45;&gt;f1_4 -->
<g id="edge8" class="edge">
<title>x_2&#45;&gt;f1_4</title>
<path fill="none" stroke="#000000" d="M43.0902,-84.5188C56.9542,-72.0413 77.1669,-53.8498 92.9519,-39.6433"/>
<polygon fill="#000000" stroke="#000000" points="95.6541,-41.9201 100.7457,-32.6289 90.9713,-36.717 95.6541,-41.9201"/>
</g>
<!-- x_3&#45;&gt;f1_1 -->
<g id="edge9" class="edge">
<title>x_3&#45;&gt;f1_1</title>
<path fill="none" stroke="#000000" d="M38.0358,-61.5536C53.5549,-84.8323 81.9587,-127.4381 100.1352,-154.7028"/>
<polygon fill="#000000" stroke="#000000" points="97.4147,-156.9319 105.874,-163.3109 103.2391,-153.049 97.4147,-156.9319"/>
</g>
<!-- x_3&#45;&gt;f1_2 -->
<g id="edge10" class="edge">
<title>x_3&#45;&gt;f1_2</title>
<path fill="none" stroke="#000000" d="M43.0902,-59.4812C56.9542,-71.9587 77.1669,-90.1502 92.9519,-104.3567"/>
<polygon fill="#000000" stroke="#000000" points="90.9713,-107.283 100.7457,-111.3711 95.6541,-102.0799 90.9713,-107.283"/>
</g>
<!-- x_3&#45;&gt;f1_3 -->
<g id="edge11" class="edge">
<title>x_3&#45;&gt;f1_3</title>
<path fill="none" stroke="#000000" d="M52.07,-52.521C61.5102,-55.3531 72.4169,-58.6251 82.564,-61.6692"/>
<polygon fill="#000000" stroke="#000000" points="81.7915,-65.0915 92.3755,-64.6126 83.803,-58.3867 81.7915,-65.0915"/>
</g>
<!-- x_3&#45;&gt;f1_4 -->
<g id="edge12" class="edge">
<title>x_3&#45;&gt;f1_4</title>
<path fill="none" stroke="#000000" d="M52.07,-37.479C61.5102,-34.6469 72.4169,-31.3749 82.564,-28.3308"/>
<polygon fill="#000000" stroke="#000000" points="83.803,-31.6133 92.3755,-25.3874 81.7915,-24.9085 83.803,-31.6133"/>
</g>
<!-- f1_1&#45;&gt;f1_2 -->
<!-- f2_1 -->
<g id="node8" class="node">
<title>f2_1</title>
<ellipse fill="#c0c0c0" stroke="#c0c0c0" cx="207" cy="-180" rx="27" ry="18"/>
<text text-anchor="middle" x="207" y="-176.3" font-family="Times,serif" font-size="14.00" fill="#000000">f2_1</text>
</g>
<!-- f1_1&#45;&gt;f2_1 -->
<g id="edge13" class="edge">
<title>f1_1&#45;&gt;f2_1</title>
<path fill="none" stroke="#000000" d="M144.003,-180C152.0277,-180 160.9665,-180 169.5309,-180"/>
<polygon fill="#000000" stroke="#000000" points="169.7051,-183.5001 179.705,-180 169.705,-176.5001 169.7051,-183.5001"/>
</g>
<!-- f2_2 -->
<g id="node9" class="node">
<title>f2_2</title>
<ellipse fill="#c0c0c0" stroke="#c0c0c0" cx="207" cy="-126" rx="27" ry="18"/>
<text text-anchor="middle" x="207" y="-122.3" font-family="Times,serif" font-size="14.00" fill="#000000">f2_2</text>
</g>
<!-- f1_1&#45;&gt;f2_2 -->
<g id="edge14" class="edge">
<title>f1_1&#45;&gt;f2_2</title>
<path fill="none" stroke="#000000" d="M137.4224,-167.7466C149.3897,-160.5662 164.7024,-151.3785 177.9143,-143.4514"/>
<polygon fill="#000000" stroke="#000000" points="179.8842,-146.3512 186.6584,-138.2049 176.2827,-140.3487 179.8842,-146.3512"/>
</g>
<!-- f2_3 -->
<g id="node10" class="node">
<title>f2_3</title>
<ellipse fill="#c0c0c0" stroke="#c0c0c0" cx="207" cy="-72" rx="27" ry="18"/>
<text text-anchor="middle" x="207" y="-68.3" font-family="Times,serif" font-size="14.00" fill="#000000">f2_3</text>
</g>
<!-- f1_1&#45;&gt;f2_3 -->
<g id="edge15" class="edge">
<title>f1_1&#45;&gt;f2_3</title>
<path fill="none" stroke="#000000" d="M130.2798,-164.0642C145.3017,-146.0379 169.9189,-116.4973 187.2077,-95.7507"/>
<polygon fill="#000000" stroke="#000000" points="189.9526,-97.924 193.6657,-88.0012 184.575,-93.4427 189.9526,-97.924"/>
</g>
<!-- f2_4 -->
<g id="node11" class="node">
<title>f2_4</title>
<ellipse fill="#c0c0c0" stroke="#c0c0c0" cx="207" cy="-18" rx="27" ry="18"/>
<text text-anchor="middle" x="207" y="-14.3" font-family="Times,serif" font-size="14.00" fill="#000000">f2_4</text>
</g>
<!-- f1_1&#45;&gt;f2_4 -->
<g id="edge16" class="edge">
<title>f1_1&#45;&gt;f2_4</title>
<path fill="none" stroke="#000000" d="M126.4615,-162.9694C142.22,-134.604 173.9424,-77.5036 192.5256,-44.0539"/>
<polygon fill="#000000" stroke="#000000" points="195.5975,-45.7314 197.3944,-35.29 189.4784,-42.3319 195.5975,-45.7314"/>
</g>
<!-- f1_2&#45;&gt;f1_3 -->
<!-- f1_2&#45;&gt;f2_1 -->
<g id="edge18" class="edge">
<title>f1_2&#45;&gt;f2_1</title>
<path fill="none" stroke="#000000" d="M137.4224,-138.2534C149.3897,-145.4338 164.7024,-154.6215 177.9143,-162.5486"/>
<polygon fill="#000000" stroke="#000000" points="176.2827,-165.6513 186.6584,-167.7951 179.8842,-159.6488 176.2827,-165.6513"/>
</g>
<!-- f1_2&#45;&gt;f2_2 -->
<g id="edge19" class="edge">
<title>f1_2&#45;&gt;f2_2</title>
<path fill="none" stroke="#000000" d="M144.003,-126C152.0277,-126 160.9665,-126 169.5309,-126"/>
<polygon fill="#000000" stroke="#000000" points="169.7051,-129.5001 179.705,-126 169.705,-122.5001 169.7051,-129.5001"/>
</g>
<!-- f1_2&#45;&gt;f2_3 -->
<g id="edge20" class="edge">
<title>f1_2&#45;&gt;f2_3</title>
<path fill="none" stroke="#000000" d="M137.4224,-113.7466C149.3897,-106.5662 164.7024,-97.3785 177.9143,-89.4514"/>
<polygon fill="#000000" stroke="#000000" points="179.8842,-92.3512 186.6584,-84.2049 176.2827,-86.3487 179.8842,-92.3512"/>
</g>
<!-- f1_2&#45;&gt;f2_4 -->
<g id="edge21" class="edge">
<title>f1_2&#45;&gt;f2_4</title>
<path fill="none" stroke="#000000" d="M130.2798,-110.0642C145.3017,-92.0379 169.9189,-62.4973 187.2077,-41.7507"/>
<polygon fill="#000000" stroke="#000000" points="189.9526,-43.924 193.6657,-34.0012 184.575,-39.4427 189.9526,-43.924"/>
</g>
<!-- f1_3&#45;&gt;f1_4 -->
<!-- f1_3&#45;&gt;f2_1 -->
<g id="edge23" class="edge">
<title>f1_3&#45;&gt;f2_1</title>
<path fill="none" stroke="#000000" d="M130.2798,-87.9358C145.3017,-105.9621 169.9189,-135.5027 187.2077,-156.2493"/>
<polygon fill="#000000" stroke="#000000" points="184.575,-158.5573 193.6657,-163.9988 189.9526,-154.076 184.575,-158.5573"/>
</g>
<!-- f1_3&#45;&gt;f2_2 -->
<g id="edge24" class="edge">
<title>f1_3&#45;&gt;f2_2</title>
<path fill="none" stroke="#000000" d="M137.4224,-84.2534C149.3897,-91.4338 164.7024,-100.6215 177.9143,-108.5486"/>
<polygon fill="#000000" stroke="#000000" points="176.2827,-111.6513 186.6584,-113.7951 179.8842,-105.6488 176.2827,-111.6513"/>
</g>
<!-- f1_3&#45;&gt;f2_3 -->
<g id="edge25" class="edge">
<title>f1_3&#45;&gt;f2_3</title>
<path fill="none" stroke="#000000" d="M144.003,-72C152.0277,-72 160.9665,-72 169.5309,-72"/>
<polygon fill="#000000" stroke="#000000" points="169.7051,-75.5001 179.705,-72 169.705,-68.5001 169.7051,-75.5001"/>
</g>
<!-- f1_3&#45;&gt;f2_4 -->
<g id="edge26" class="edge">
<title>f1_3&#45;&gt;f2_4</title>
<path fill="none" stroke="#000000" d="M137.4224,-59.7466C149.3897,-52.5662 164.7024,-43.3785 177.9143,-35.4514"/>
<polygon fill="#000000" stroke="#000000" points="179.8842,-38.3512 186.6584,-30.2049 176.2827,-32.3487 179.8842,-38.3512"/>
</g>
<!-- f1_4&#45;&gt;f2_1 -->
<g id="edge28" class="edge">
<title>f1_4&#45;&gt;f2_1</title>
<path fill="none" stroke="#000000" d="M126.4615,-35.0306C142.22,-63.396 173.9424,-120.4964 192.5256,-153.9461"/>
<polygon fill="#000000" stroke="#000000" points="189.4784,-155.6681 197.3944,-162.71 195.5975,-152.2686 189.4784,-155.6681"/>
</g>
<!-- f1_4&#45;&gt;f2_2 -->
<g id="edge29" class="edge">
<title>f1_4&#45;&gt;f2_2</title>
<path fill="none" stroke="#000000" d="M130.2798,-33.9358C145.3017,-51.9621 169.9189,-81.5027 187.2077,-102.2493"/>
<polygon fill="#000000" stroke="#000000" points="184.575,-104.5573 193.6657,-109.9988 189.9526,-100.076 184.575,-104.5573"/>
</g>
<!-- f1_4&#45;&gt;f2_3 -->
<g id="edge30" class="edge">
<title>f1_4&#45;&gt;f2_3</title>
<path fill="none" stroke="#000000" d="M137.4224,-30.2534C149.3897,-37.4338 164.7024,-46.6215 177.9143,-54.5486"/>
<polygon fill="#000000" stroke="#000000" points="176.2827,-57.6513 186.6584,-59.7951 179.8842,-51.6488 176.2827,-57.6513"/>
</g>
<!-- f1_4&#45;&gt;f2_4 -->
<g id="edge31" class="edge">
<title>f1_4&#45;&gt;f2_4</title>
<path fill="none" stroke="#000000" d="M144.003,-18C152.0277,-18 160.9665,-18 169.5309,-18"/>
<polygon fill="#000000" stroke="#000000" points="169.7051,-21.5001 179.705,-18 169.705,-14.5001 169.7051,-21.5001"/>
</g>
<!-- f2_1&#45;&gt;f2_2 -->
<!-- c -->
<g id="node12" class="node">
<title>c</title>
<ellipse fill="#add8e6" stroke="#add8e6" cx="297" cy="-99" rx="27" ry="18"/>
<text text-anchor="middle" x="297" y="-95.3" font-family="Times,serif" font-size="14.00" fill="#000000">c</text>
</g>
<!-- f2_1&#45;&gt;c -->
<g id="edge17" class="edge">
<title>f2_1&#45;&gt;c</title>
<path fill="none" stroke="#000000" d="M223.0902,-165.5188C236.9542,-153.0413 257.1669,-134.8498 272.9519,-120.6433"/>
<polygon fill="#000000" stroke="#000000" points="275.6541,-122.9201 280.7457,-113.6289 270.9713,-117.717 275.6541,-122.9201"/>
</g>
<!-- f2_2&#45;&gt;f2_3 -->
<!-- f2_2&#45;&gt;c -->
<g id="edge22" class="edge">
<title>f2_2&#45;&gt;c</title>
<path fill="none" stroke="#000000" d="M232.07,-118.479C241.5102,-115.6469 252.4169,-112.3749 262.564,-109.3308"/>
<polygon fill="#000000" stroke="#000000" points="263.803,-112.6133 272.3755,-106.3874 261.7915,-105.9085 263.803,-112.6133"/>
</g>
<!-- f2_3&#45;&gt;f2_4 -->
<!-- f2_3&#45;&gt;c -->
<g id="edge27" class="edge">
<title>f2_3&#45;&gt;c</title>
<path fill="none" stroke="#000000" d="M232.07,-79.521C241.5102,-82.3531 252.4169,-85.6251 262.564,-88.6692"/>
<polygon fill="#000000" stroke="#000000" points="261.7915,-92.0915 272.3755,-91.6126 263.803,-85.3867 261.7915,-92.0915"/>
</g>
<!-- f2_4&#45;&gt;c -->
<g id="edge32" class="edge">
<title>f2_4&#45;&gt;c</title>
<path fill="none" stroke="#000000" d="M223.0902,-32.4812C236.9542,-44.9587 257.1669,-63.1502 272.9519,-77.3567"/>
<polygon fill="#000000" stroke="#000000" points="270.9713,-80.283 280.7457,-84.3711 275.6541,-75.0799 270.9713,-80.283"/>
</g>
</g>
</svg>
